<svg width="25" height="20" viewBox="0 0 25 20" fill="none" xmlns="http://www.w3.org/2000/svg">
<path fill-rule="evenodd" clip-rule="evenodd" d="M1.5625 10C1.5625 9.83424 1.64481 9.67526 1.79132 9.55805C1.93784 9.44084 2.13655 9.375 2.34375 9.375H20.7703L15.8531 5.4425C15.7064 5.32514 15.624 5.16597 15.624 5C15.624 4.83403 15.7064 4.67485 15.8531 4.5575C15.9998 4.44014 16.1988 4.37421 16.4062 4.37421C16.6137 4.37421 16.8127 4.44014 16.9594 4.5575L23.2094 9.5575C23.2821 9.61555 23.3399 9.68452 23.3792 9.76045C23.4186 9.83639 23.4389 9.91779 23.4389 10C23.4389 10.0822 23.4186 10.1636 23.3792 10.2395C23.3399 10.3155 23.2821 10.3844 23.2094 10.4425L16.9594 15.4425C16.8127 15.5599 16.6137 15.6258 16.4062 15.6258C16.1988 15.6258 15.9998 15.5599 15.8531 15.4425C15.7064 15.3251 15.624 15.166 15.624 15C15.624 14.834 15.7064 14.6749 15.8531 14.5575L20.7703 10.625H2.34375C2.13655 10.625 1.93784 10.5591 1.79132 10.4419C1.64481 10.3247 1.5625 10.1658 1.5625 10Z" fill="black"/>
</svg>
