<svg width="25" height="25" viewBox="0 0 25 25" fill="none" xmlns="http://www.w3.org/2000/svg">
<g clip-path="url(#clip0_46_166)">
<path d="M8.99531 1.67339C9.08335 1.72611 9.16014 1.79566 9.2213 1.87806C9.28246 1.96047 9.32678 2.05411 9.35174 2.15365C9.37669 2.25319 9.3818 2.35667 9.36675 2.45818C9.35171 2.55969 9.31681 2.65724 9.26406 2.74526L5.28594 9.37495H19.7141L15.7344 2.74526C15.6279 2.56748 15.5964 2.35468 15.6468 2.15366C15.6972 1.95265 15.8253 1.77989 16.0031 1.67339C16.1809 1.56689 16.3937 1.53537 16.5947 1.58577C16.7957 1.63617 16.9685 1.76436 17.075 1.94214L21.5359 9.37495H23.4375C23.8519 9.37495 24.2493 9.53957 24.5424 9.83259C24.8354 10.1256 25 10.523 25 10.9374V12.4999C25 12.9143 24.8354 13.3118 24.5424 13.6048C24.2493 13.8978 23.8519 14.0624 23.4375 14.0624V21.0937C23.4375 22.1297 23.0259 23.1233 22.2934 23.8558C21.5608 24.5884 20.5673 24.9999 19.5312 24.9999H5.46875C4.43275 24.9999 3.43918 24.5884 2.70661 23.8558C1.97405 23.1233 1.5625 22.1297 1.5625 21.0937V14.0624C1.1481 14.0624 0.750671 13.8978 0.457646 13.6048C0.16462 13.3118 0 12.9143 0 12.4999V10.9374C0 10.523 0.16462 10.1256 0.457646 9.83259C0.750671 9.53957 1.1481 9.37495 1.5625 9.37495H3.46406L7.92188 1.94214C7.9746 1.8541 8.04414 1.7773 8.12655 1.71615C8.20895 1.65499 8.3026 1.61067 8.40214 1.58571C8.50168 1.56076 8.60516 1.55565 8.70667 1.5707C8.80818 1.58574 8.90573 1.62063 8.99375 1.67339H8.99531ZM3.125 14.0624V21.0937C3.125 21.7153 3.37193 22.3114 3.81147 22.751C4.25101 23.1905 4.84715 23.4374 5.46875 23.4374H19.5312C20.1529 23.4374 20.749 23.1905 21.1885 22.751C21.6281 22.3114 21.875 21.7153 21.875 21.0937V14.0624H3.125ZM1.5625 10.9374V12.4999H23.4375V10.9374H1.5625ZM6.25 15.6249C6.4572 15.6249 6.65591 15.7073 6.80243 15.8538C6.94894 16.0003 7.03125 16.199 7.03125 16.4062V21.0937C7.03125 21.3009 6.94894 21.4996 6.80243 21.6461C6.65591 21.7926 6.4572 21.8749 6.25 21.8749C6.0428 21.8749 5.84409 21.7926 5.69757 21.6461C5.55106 21.4996 5.46875 21.3009 5.46875 21.0937V16.4062C5.46875 16.199 5.55106 16.0003 5.69757 15.8538C5.84409 15.7073 6.0428 15.6249 6.25 15.6249ZM9.375 15.6249C9.5822 15.6249 9.78091 15.7073 9.92743 15.8538C10.0739 16.0003 10.1562 16.199 10.1562 16.4062V21.0937C10.1562 21.3009 10.0739 21.4996 9.92743 21.6461C9.78091 21.7926 9.5822 21.8749 9.375 21.8749C9.1678 21.8749 8.96909 21.7926 8.82257 21.6461C8.67606 21.4996 8.59375 21.3009 8.59375 21.0937V16.4062C8.59375 16.199 8.67606 16.0003 8.82257 15.8538C8.96909 15.7073 9.1678 15.6249 9.375 15.6249ZM12.5 15.6249C12.7072 15.6249 12.9059 15.7073 13.0524 15.8538C13.1989 16.0003 13.2812 16.199 13.2812 16.4062V21.0937C13.2812 21.3009 13.1989 21.4996 13.0524 21.6461C12.9059 21.7926 12.7072 21.8749 12.5 21.8749C12.2928 21.8749 12.0941 21.7926 11.9476 21.6461C11.8011 21.4996 11.7188 21.3009 11.7188 21.0937V16.4062C11.7188 16.199 11.8011 16.0003 11.9476 15.8538C12.0941 15.7073 12.2928 15.6249 12.5 15.6249ZM15.625 15.6249C15.8322 15.6249 16.0309 15.7073 16.1774 15.8538C16.3239 16.0003 16.4062 16.199 16.4062 16.4062V21.0937C16.4062 21.3009 16.3239 21.4996 16.1774 21.6461C16.0309 21.7926 15.8322 21.8749 15.625 21.8749C15.4178 21.8749 15.2191 21.7926 15.0726 21.6461C14.9261 21.4996 14.8438 21.3009 14.8438 21.0937V16.4062C14.8438 16.199 14.9261 16.0003 15.0726 15.8538C15.2191 15.7073 15.4178 15.6249 15.625 15.6249ZM18.75 15.6249C18.9572 15.6249 19.1559 15.7073 19.3024 15.8538C19.4489 16.0003 19.5312 16.199 19.5312 16.4062V21.0937C19.5312 21.3009 19.4489 21.4996 19.3024 21.6461C19.1559 21.7926 18.9572 21.8749 18.75 21.8749C18.5428 21.8749 18.3441 21.7926 18.1976 21.6461C18.0511 21.4996 17.9688 21.3009 17.9688 21.0937V16.4062C17.9688 16.199 18.0511 16.0003 18.1976 15.8538C18.3441 15.7073 18.5428 15.6249 18.75 15.6249Z" fill="white"/>
</g>
<defs>
<clipPath id="clip0_46_166">
<rect width="25" height="25" fill="white"/>
</clipPath>
</defs>
</svg>
