<svg width="13" height="13" viewBox="0 0 13 13" fill="none" xmlns="http://www.w3.org/2000/svg">
<path fill-rule="evenodd" clip-rule="evenodd" d="M3.77487 1.33737C3.81261 1.29954 3.85744 1.26952 3.90679 1.24904C3.95615 1.22856 4.00906 1.21802 4.06249 1.21802C4.11593 1.21802 4.16884 1.22856 4.2182 1.24904C4.26755 1.26952 4.31238 1.29954 4.35012 1.33737L9.22512 6.21237C9.26295 6.25011 9.29297 6.29494 9.31345 6.34429C9.33393 6.39365 9.34447 6.44656 9.34447 6.49999C9.34447 6.55343 9.33393 6.60634 9.31345 6.6557C9.29297 6.70505 9.26295 6.74988 9.22512 6.78762L4.35012 11.6626C4.27384 11.7389 4.17037 11.7818 4.06249 11.7818C3.95461 11.7818 3.85115 11.7389 3.77487 11.6626C3.69859 11.5863 3.65573 11.4829 3.65573 11.375C3.65573 11.2671 3.69859 11.1637 3.77487 11.0874L8.36306 6.49999L3.77487 1.91262C3.73704 1.87488 3.70702 1.83005 3.68654 1.7807C3.66606 1.73134 3.65552 1.67843 3.65552 1.62499C3.65552 1.57156 3.66606 1.51865 3.68654 1.46929C3.70702 1.41994 3.73704 1.37511 3.77487 1.33737Z" fill="#E98024"/>
</svg>
