<svg width="20" height="22" viewBox="0 0 20 22" fill="none" xmlns="http://www.w3.org/2000/svg">
<path d="M19.1217 9.02838L10.7692 0.491713C10.6685 0.390174 10.5486 0.30958 10.4166 0.25458C10.2846 0.199581 10.143 0.171265 10 0.171265C9.85699 0.171265 9.71539 0.199581 9.58338 0.25458C9.45136 0.30958 9.33155 0.390174 9.23084 0.491713L0.878336 9.03921C0.676226 9.24295 0.516605 9.48482 0.408742 9.75076C0.300878 10.0167 0.246921 10.3014 0.250003 10.5884V19.6667C0.249164 20.2213 0.461007 20.7551 0.841909 21.1581C1.22281 21.5612 1.74377 21.8029 2.2975 21.8334H17.7025C18.2562 21.8029 18.7772 21.5612 19.1581 21.1581C19.539 20.7551 19.7508 20.2213 19.75 19.6667V10.5884C19.7509 10.0066 19.5256 9.44718 19.1217 9.02838ZM7.83334 19.6667V13.1667H12.1667V19.6667H7.83334ZM17.5833 19.6667H14.3333V12.0834C14.3333 11.7961 14.2192 11.5205 14.016 11.3173C13.8129 11.1142 13.5373 11 13.25 11H6.75C6.46268 11 6.18713 11.1142 5.98397 11.3173C5.78081 11.5205 5.66667 11.7961 5.66667 12.0834V19.6667H2.41667V10.545L10 2.79921L17.5833 10.5884V19.6667Z" fill="white"/>
</svg>
