<svg width="26" height="25" viewBox="0 0 26 25" fill="none" xmlns="http://www.w3.org/2000/svg">
<path d="M25.1667 12.5C25.1667 12.1132 25.013 11.7423 24.7395 11.4688C24.466 11.1953 24.0951 11.0417 23.7083 11.0417L1.83332 11.0417C1.44655 11.0417 1.07562 11.1953 0.802126 11.4688C0.528635 11.7423 0.37499 12.1132 0.37499 12.5C0.37499 12.8868 0.528635 13.2577 0.802126 13.5312C1.07562 13.8047 1.44655 13.9583 1.83332 13.9583L23.7083 13.9583C24.0951 13.9583 24.466 13.8047 24.7395 13.5312C25.013 13.2577 25.1667 12.8868 25.1667 12.5ZM13.5 22.7083C13.5 22.3216 13.3463 21.9506 13.0729 21.6771C12.7994 21.4037 12.4284 21.25 12.0417 21.25H1.83332C1.44655 21.25 1.07562 21.4037 0.802126 21.6771C0.528635 21.9506 0.37499 22.3216 0.37499 22.7083C0.37499 23.0951 0.528635 23.466 0.802126 23.7395C1.07562 24.013 1.44655 24.1667 1.83332 24.1667H12.0417C12.4284 24.1667 12.7994 24.013 13.0729 23.7395C13.3463 23.466 13.5 23.0951 13.5 22.7083ZM19.3333 2.29168C19.3333 1.9049 19.1797 1.53397 18.9062 1.26048C18.6327 0.986989 18.2618 0.833344 17.875 0.833344L1.83332 0.833344C1.44655 0.833344 1.07562 0.986989 0.802126 1.26048C0.528635 1.53397 0.37499 1.9049 0.37499 2.29168C0.37499 2.67845 0.528635 3.04938 0.802126 3.32287C1.07562 3.59636 1.44655 3.75001 1.83332 3.75001L17.875 3.75001C18.2618 3.75001 18.6327 3.59636 18.9062 3.32287C19.1797 3.04938 19.3333 2.67845 19.3333 2.29168Z" fill="white"/>
</svg>
