<svg width="28" height="28" viewBox="0 0 28 28" fill="none" xmlns="http://www.w3.org/2000/svg">
<g clip-path="url(#clip0_38_621)">
<path d="M8.16671 16.3334C8.78555 16.3334 9.37904 16.0875 9.81662 15.6499C10.2542 15.2124 10.5 14.6189 10.5 14C10.5 13.3812 10.2542 12.7877 9.81662 12.3501C9.37904 11.9125 8.78555 11.6667 8.16671 11.6667C7.54787 11.6667 6.95438 11.9125 6.51679 12.3501C6.07921 12.7877 5.83337 13.3812 5.83337 14C5.83337 14.6189 6.07921 15.2124 6.51679 15.6499C6.95438 16.0875 7.54787 16.3334 8.16671 16.3334Z" fill="white"/>
<path d="M16.3333 14C16.3333 14.6189 16.0875 15.2124 15.6499 15.6499C15.2123 16.0875 14.6188 16.3334 14 16.3334C13.3811 16.3334 12.7876 16.0875 12.35 15.6499C11.9125 15.2124 11.6666 14.6189 11.6666 14C11.6666 13.3812 11.9125 12.7877 12.35 12.3501C12.7876 11.9125 13.3811 11.6667 14 11.6667C14.6188 11.6667 15.2123 11.9125 15.6499 12.3501C16.0875 12.7877 16.3333 13.3812 16.3333 14Z" fill="white"/>
<path d="M19.8333 16.3334C20.4522 16.3334 21.0457 16.0875 21.4832 15.6499C21.9208 15.2124 22.1667 14.6189 22.1667 14C22.1667 13.3812 21.9208 12.7877 21.4832 12.3501C21.0457 11.9125 20.4522 11.6667 19.8333 11.6667C19.2145 11.6667 18.621 11.9125 18.1834 12.3501C17.7458 12.7877 17.5 13.3812 17.5 14C17.5 14.6189 17.7458 15.2124 18.1834 15.6499C18.621 16.0875 19.2145 16.3334 19.8333 16.3334Z" fill="white"/>
<path fill-rule="evenodd" clip-rule="evenodd" d="M28 14C28 21.7315 21.7315 28 14 28C6.2685 28 0 21.7315 0 14C0 6.2685 6.2685 0 14 0C21.7315 0 28 6.2685 28 14ZM25.6667 14C25.6667 20.4435 20.4435 25.6667 14 25.6667C7.5565 25.6667 2.33333 20.4435 2.33333 14C2.33333 7.5565 7.5565 2.33333 14 2.33333C20.4435 2.33333 25.6667 7.5565 25.6667 14Z" fill="white"/>
</g>
<defs>
<clipPath id="clip0_38_621">
<rect width="28" height="28" fill="white"/>
</clipPath>
</defs>
</svg>
