<svg width="28" height="28" viewBox="0 0 28 28" fill="none" xmlns="http://www.w3.org/2000/svg">
<path d="M10.2667 13.0667H17.7333V11.2H10.2667V13.0667ZM18.6667 14V19.6H20.5333V14H18.6667ZM17.7333 20.5333H10.2667V22.4H17.7333V20.5333ZM9.33333 19.6V14H7.46667V19.6H9.33333ZM10.2667 20.5333C10.0191 20.5333 9.78173 20.435 9.6067 20.26C9.43167 20.0849 9.33333 19.8475 9.33333 19.6H7.46667C7.46667 20.3426 7.76167 21.0548 8.28677 21.5799C8.81187 22.105 9.52406 22.4 10.2667 22.4V20.5333ZM18.6667 19.6C18.6667 19.8475 18.5683 20.0849 18.3933 20.26C18.2183 20.435 17.9809 20.5333 17.7333 20.5333V22.4C18.4759 22.4 19.1881 22.105 19.7132 21.5799C20.2383 21.0548 20.5333 20.3426 20.5333 19.6H18.6667ZM17.7333 13.0667C17.9809 13.0667 18.2183 13.165 18.3933 13.34C18.5683 13.5151 18.6667 13.7525 18.6667 14H20.5333C20.5333 13.2574 20.2383 12.5452 19.7132 12.0201C19.1881 11.495 18.4759 11.2 17.7333 11.2V13.0667ZM10.2667 11.2C9.52406 11.2 8.81187 11.495 8.28677 12.0201C7.76167 12.5452 7.46667 13.2574 7.46667 14H9.33333C9.33333 13.7525 9.43167 13.5151 9.6067 13.34C9.78173 13.165 10.0191 13.0667 10.2667 13.0667V11.2ZM11.2 12.1333V10.2667H9.33333V12.1333H11.2ZM16.8 10.2667V12.1333H18.6667V10.2667H16.8ZM14 7.46667C14.7426 7.46667 15.4548 7.76167 15.9799 8.28677C16.505 8.81187 16.8 9.52406 16.8 10.2667H18.6667C18.6667 9.02899 18.175 7.842 17.2998 6.96684C16.4247 6.09167 15.2377 5.6 14 5.6V7.46667ZM11.2 10.2667C11.2 9.52406 11.495 8.81187 12.0201 8.28677C12.5452 7.76167 13.2574 7.46667 14 7.46667V5.6C12.7623 5.6 11.5753 6.09167 10.7002 6.96684C9.825 7.842 9.33333 9.02899 9.33333 10.2667H11.2ZM1.86667 14C1.86667 10.782 3.145 7.69588 5.42044 5.42044C7.69588 3.145 10.782 1.86667 14 1.86667V0C10.287 0 6.72601 1.475 4.1005 4.1005C1.475 6.72601 0 10.287 0 14H1.86667ZM14 26.1333C10.782 26.1333 7.69588 24.855 5.42044 22.5796C3.145 20.3041 1.86667 17.218 1.86667 14H0C0 17.713 1.475 21.274 4.1005 23.8995C6.72601 26.525 10.287 28 14 28V26.1333ZM26.1333 14C26.1333 15.5934 25.8195 17.1711 25.2097 18.6432C24.6 20.1153 23.7062 21.4529 22.5796 22.5796C21.4529 23.7062 20.1153 24.6 18.6432 25.2097C17.1711 25.8195 15.5934 26.1333 14 26.1333V28C17.713 28 21.274 26.525 23.8995 23.8995C26.525 21.274 28 17.713 28 14H26.1333ZM28 14C28 10.287 26.525 6.72601 23.8995 4.1005C21.274 1.475 17.713 0 14 0V1.86667C15.5934 1.86667 17.1711 2.1805 18.6432 2.79026C20.1153 3.40002 21.4529 4.29375 22.5796 5.42044C23.7062 6.54712 24.6 7.88469 25.2097 9.35677C25.8195 10.8289 26.1333 12.4066 26.1333 14H28Z" fill="#E98024"/>
</svg>
