<svg width="28" height="28" viewBox="0 0 28 28" fill="none" xmlns="http://www.w3.org/2000/svg">
<path d="M4 16.2208C4.96833 16.9769 6.42317 17.4186 8.08333 17.3986C9.7435 17.4186 11.1983 16.9769 12.1667 16.2208C13.135 15.4647 14.5898 15.023 16.25 15.043C17.9102 15.023 19.365 15.4647 20.3333 16.2208" stroke="white" stroke-width="2" stroke-linecap="round" stroke-linejoin="round"/>
<path d="M9.83333 3.26526C9.46409 3.53282 9.16491 3.88709 8.96165 4.29749C8.75839 4.70789 8.65714 5.16208 8.66666 5.62082C8.65714 6.07956 8.75839 6.53374 8.96165 6.94414C9.16491 7.35454 9.46409 7.70882 9.83333 7.97637" stroke="white" stroke-width="2" stroke-linecap="round" stroke-linejoin="round"/>
<path d="M14.5 3.26526C14.1308 3.53282 13.8316 3.88709 13.6283 4.29749C13.4251 4.70789 13.3238 5.16208 13.3333 5.62082C13.3238 6.07956 13.4251 6.53374 13.6283 6.94414C13.8316 7.35454 14.1308 7.70882 14.5 7.97637" stroke="white" stroke-width="2" stroke-linecap="round" stroke-linejoin="round"/>
<path d="M4 11.5098H20.3333V17.3987C20.3333 19.2729 19.5958 21.0703 18.2831 22.3955C16.9703 23.7208 15.1898 24.4653 13.3333 24.4653H11C9.14348 24.4653 7.36301 23.7208 6.05025 22.3955C4.7375 21.0703 4 19.2729 4 17.3987V11.5098Z" stroke="white" stroke-width="2" stroke-linecap="round" stroke-linejoin="round"/>
<path d="M20.037 19.4315C20.558 19.6729 21.1298 19.7815 21.7021 19.7476C22.2745 19.7137 22.8298 19.5384 23.3193 19.2371C23.8088 18.9358 24.2175 18.5177 24.5094 18.0196C24.8013 17.5215 24.9676 16.9586 24.9936 16.3805C25.0196 15.8023 24.9045 15.2265 24.6584 14.7038C24.4123 14.181 24.0428 13.7273 23.5824 13.3825C23.1219 13.0377 22.5846 12.8124 22.0177 12.7263C21.4507 12.6402 20.8715 12.6961 20.331 12.8889" stroke="white" stroke-width="2" stroke-linecap="round" stroke-linejoin="round"/>
</svg>
