<svg width="26" height="26" viewBox="0 0 26 26" fill="none" xmlns="http://www.w3.org/2000/svg">
<path d="M23.4812 15.8869L21.8181 14.4651C21.8968 13.9826 21.9375 13.4901 21.9375 12.9975C21.9375 12.5049 21.8968 12.0123 21.8181 11.5299L23.4812 10.108C23.6066 10.0006 23.6964 9.85762 23.7386 9.69797C23.7808 9.53832 23.7734 9.36961 23.7173 9.21428L23.6945 9.14827C23.2366 7.86865 22.5511 6.68242 21.6709 5.6469L21.6251 5.59358C21.5184 5.46803 21.3761 5.37778 21.217 5.33472C21.0579 5.29166 20.8895 5.29781 20.7339 5.35237L18.6697 6.08616C17.908 5.46155 17.0574 4.96897 16.1382 4.62366L15.7396 2.46545C15.7095 2.30306 15.6308 2.15366 15.5137 2.03711C15.3967 1.92055 15.247 1.84236 15.0845 1.81292L15.016 1.80022C13.6931 1.56155 12.3017 1.56155 10.9789 1.80022L10.9103 1.81292C10.7478 1.84236 10.5981 1.92055 10.4811 2.03711C10.3641 2.15366 10.2853 2.30306 10.2552 2.46545L9.85406 4.63381C8.94225 4.9792 8.09313 5.47152 7.34039 6.09124L5.26089 5.35237C5.10542 5.29738 4.93689 5.291 4.7777 5.33409C4.61851 5.37717 4.4762 5.46768 4.36968 5.59358L4.32398 5.6469C3.44482 6.68315 2.75935 7.86918 2.30035 9.14827L2.2775 9.21428C2.16324 9.53167 2.25718 9.88713 2.51363 10.108L4.19703 11.5451C4.11832 12.0225 4.08023 12.51 4.08023 12.9949C4.08023 13.4824 4.11832 13.9699 4.19703 14.4448L2.51363 15.8819C2.38819 15.9892 2.29841 16.1323 2.25623 16.2919C2.21405 16.4516 2.22147 16.6203 2.2775 16.7756L2.30035 16.8416C2.75992 18.1213 3.44039 19.302 4.32398 20.343L4.36968 20.3963C4.47646 20.5219 4.61877 20.6121 4.77787 20.6552C4.93696 20.6982 5.10537 20.6921 5.26089 20.6375L7.34039 19.8987C8.09703 20.5207 8.94253 21.0133 9.85406 21.3561L10.2552 23.5244C10.2853 23.6868 10.3641 23.8362 10.4811 23.9528C10.5981 24.0693 10.7478 24.1475 10.9103 24.177L10.9789 24.1897C12.3139 24.4296 13.681 24.4296 15.016 24.1897L15.0845 24.177C15.247 24.1475 15.3967 24.0693 15.5137 23.9528C15.6308 23.8362 15.7095 23.6868 15.7396 23.5244L16.1382 21.3662C17.057 21.0218 17.9124 20.5276 18.6697 19.9037L20.7339 20.6375C20.8894 20.6925 21.0579 20.6989 21.2171 20.6558C21.3763 20.6127 21.5186 20.5222 21.6251 20.3963L21.6709 20.343C22.5544 19.2994 23.2349 18.1213 23.6945 16.8416L23.7173 16.7756C23.8316 16.4633 23.7376 16.1078 23.4812 15.8869ZM20.0154 11.8295C20.0789 12.2129 20.1119 12.6065 20.1119 13C20.1119 13.3936 20.0789 13.7871 20.0154 14.1705L19.8478 15.1887L21.7445 16.8112C21.457 17.4736 21.094 18.1006 20.6628 18.6799L18.3066 17.8446L17.5093 18.4996C16.9025 18.9973 16.2271 19.3883 15.4959 19.6625L14.5285 20.0256L14.074 22.4885C13.3569 22.5698 12.6329 22.5698 11.9158 22.4885L11.4613 20.0205L10.5015 19.6524C9.77788 19.3782 9.10503 18.9871 8.50328 18.492L7.70601 17.8344L5.33453 18.6774C4.90289 18.0959 4.54234 17.4688 4.25289 16.8086L6.16988 15.1709L6.00484 14.1553C5.9439 13.777 5.91089 13.386 5.91089 13C5.91089 12.6115 5.94136 12.2231 6.00484 11.8448L6.16988 10.8291L4.25289 9.19143C4.5398 8.52874 4.90289 7.90413 5.33453 7.32268L7.70601 8.16565L8.50328 7.50803C9.10503 7.01292 9.77788 6.6219 10.5015 6.34768L11.4638 5.9846L11.9183 3.51663C12.6318 3.43538 13.3605 3.43538 14.0765 3.51663L14.531 5.97952L15.4984 6.3426C16.2271 6.61682 16.905 7.00784 17.5119 7.50549L18.3091 8.16057L20.6654 7.32522C21.097 7.90667 21.4576 8.53381 21.747 9.19397L19.8503 10.8164L20.0154 11.8295ZM13 8.27737C10.532 8.27737 8.53121 10.2782 8.53121 12.7461C8.53121 15.2141 10.532 17.2149 13 17.2149C15.4679 17.2149 17.4687 15.2141 17.4687 12.7461C17.4687 10.2782 15.4679 8.27737 13 8.27737ZM15.0109 14.7571C14.7471 15.0216 14.4337 15.2313 14.0886 15.3742C13.7435 15.5172 13.3735 15.5905 13 15.5899C12.2408 15.5899 11.5273 15.2928 10.989 14.7571C10.7245 14.4933 10.5148 14.1799 10.3718 13.8347C10.2289 13.4896 10.1556 13.1197 10.1562 12.7461C10.1562 11.9869 10.4533 11.2735 10.989 10.7352C11.5273 10.1969 12.2408 9.90237 13 9.90237C13.7591 9.90237 14.4726 10.1969 15.0109 10.7352C15.2754 10.9989 15.4852 11.3124 15.6281 11.6575C15.771 12.0026 15.8443 12.3726 15.8437 12.7461C15.8437 13.5053 15.5466 14.2188 15.0109 14.7571Z" fill="#333333"/>
</svg>
