<svg width="27" height="22" viewBox="0 0 27 22" fill="none" xmlns="http://www.w3.org/2000/svg">
<path d="M4.78125 3.42708C4.43868 3.42708 4.11014 3.56317 3.8679 3.8054C3.62567 4.04764 3.48958 4.37618 3.48958 4.71875V7.29692C3.49346 7.30983 3.50896 7.34471 3.55933 7.40283C3.64975 7.50875 3.80863 7.63017 4.014 7.73092C5.09513 8.2605 6.07292 9.36358 6.07292 11.1771C6.07292 12.9906 5.09513 14.0924 4.014 14.6233C3.84283 14.7025 3.68848 14.8139 3.55933 14.9513C3.52969 14.982 3.50603 15.0179 3.48958 15.0572V17.6354C3.48958 17.978 3.62567 18.3065 3.8679 18.5488C4.11014 18.791 4.43868 18.9271 4.78125 18.9271H16.4063V16.3438C16.4063 16.0012 16.5423 15.6726 16.7846 15.4304C17.0268 15.1882 17.3553 15.0521 17.6979 15.0521C18.0405 15.0521 18.369 15.1882 18.6113 15.4304C18.8535 15.6726 18.9896 16.0012 18.9896 16.3438V18.9271H22.8646C23.2072 18.9271 23.5357 18.791 23.7779 18.5488C24.0202 18.3065 24.1563 17.978 24.1563 17.6354V15.0572C24.1398 15.0179 24.1161 14.982 24.0865 14.9513C23.9574 14.8138 23.803 14.7025 23.6318 14.6233C22.552 14.0937 21.5729 12.9906 21.5729 11.1771C21.5729 9.36358 22.5507 8.26179 23.6331 7.73092C23.8372 7.63017 23.9948 7.50875 24.0865 7.40283C24.1161 7.37216 24.1398 7.33624 24.1563 7.29692V4.71875C24.1563 4.37618 24.0202 4.04764 23.7779 3.8054C23.5357 3.56317 23.2072 3.42708 22.8646 3.42708H18.9896V6.01042C18.9896 6.35299 18.8535 6.68153 18.6113 6.92376C18.369 7.166 18.0405 7.30208 17.6979 7.30208C17.3553 7.30208 17.0268 7.166 16.7846 6.92376C16.5423 6.68153 16.4063 6.35299 16.4063 6.01042V3.42708H4.78125ZM0.90625 4.71875C0.90625 3.69104 1.31451 2.70541 2.04121 1.97871C2.76791 1.25201 3.75354 0.84375 4.78125 0.84375H22.8646C23.8923 0.84375 24.8779 1.25201 25.6046 1.97871C26.3313 2.70541 26.7396 3.69104 26.7396 4.71875V7.30208C26.7396 8.78104 25.5383 9.67229 24.7711 10.0495C24.6006 10.1278 24.4543 10.2505 24.3474 10.4047C24.2544 10.5442 24.1563 10.7767 24.1563 11.1771C24.1563 11.5775 24.2544 11.81 24.3474 11.9495C24.4543 12.1037 24.6006 12.2263 24.7711 12.3047C25.5383 12.6819 26.7396 13.5731 26.7396 15.0521V17.6354C26.7396 18.6631 26.3313 19.6488 25.6046 20.3755C24.8779 21.1022 23.8923 21.5104 22.8646 21.5104H4.78125C3.75354 21.5104 2.76791 21.1022 2.04121 20.3755C1.31451 19.6488 0.90625 18.6631 0.90625 17.6354V15.0521C0.90625 13.5731 2.1075 12.6819 2.87475 12.3047C3.0452 12.2263 3.1915 12.1037 3.29842 11.9495C3.39142 11.81 3.48958 11.5775 3.48958 11.1771C3.48958 10.7767 3.39142 10.5442 3.29842 10.4047C3.1915 10.2505 3.0452 10.1278 2.87475 10.0495C2.1075 9.67229 0.90625 8.78104 0.90625 7.30208V4.71875ZM17.6979 8.59375C18.0405 8.59375 18.369 8.72984 18.6113 8.97207C18.8535 9.2143 18.9896 9.54284 18.9896 9.88542V12.4688C18.9896 12.8113 18.8535 13.1399 18.6113 13.3821C18.369 13.6243 18.0405 13.7604 17.6979 13.7604C17.3553 13.7604 17.0268 13.6243 16.7846 13.3821C16.5423 13.1399 16.4063 12.8113 16.4063 12.4688V9.88542C16.4063 9.54284 16.5423 9.2143 16.7846 8.97207C17.0268 8.72984 17.3553 8.59375 17.6979 8.59375Z" fill="white"/>
</svg>
