<svg width="28" height="28" viewBox="0 0 28 28" fill="none" xmlns="http://www.w3.org/2000/svg">
<path d="M14 2.625C7.728 2.625 2.625 7.728 2.625 14C2.625 20.272 7.728 25.375 14 25.375C16.0729 25.375 18.0101 24.8089 19.6857 23.8368L18.4249 22.54C17.0588 23.2528 15.5408 23.625 14 23.625C8.69312 23.625 4.375 19.3069 4.375 14C4.375 8.69312 8.69312 4.375 14 4.375C19.3069 4.375 23.625 8.69312 23.625 14C23.625 14.0227 23.6215 14.0446 23.6215 14.0665C24.2381 14.1625 24.8247 14.398 25.3365 14.7551C25.3522 14.504 25.375 14.2555 25.375 14C25.375 7.728 20.272 2.625 14 2.625ZM10.0625 10.5C9.7144 10.5 9.38056 10.6383 9.13442 10.8844C8.88828 11.1306 8.75 11.4644 8.75 11.8125C8.75 12.1606 8.88828 12.4944 9.13442 12.7406C9.38056 12.9867 9.7144 13.125 10.0625 13.125C10.4106 13.125 10.7444 12.9867 10.9906 12.7406C11.2367 12.4944 11.375 12.1606 11.375 11.8125C11.375 11.4644 11.2367 11.1306 10.9906 10.8844C10.7444 10.6383 10.4106 10.5 10.0625 10.5ZM17.5 10.5C15.6678 10.5 14.3412 11.5561 14.3412 11.5561L15.4088 12.9439C15.4088 12.9439 16.3555 12.25 17.5009 12.25C18.6462 12.25 19.5921 12.9439 19.5921 12.9439L20.6596 11.5561C20.657 11.5561 19.3314 10.5 17.5 10.5ZM13.125 14.882V16.1857C13.9143 16.1857 14.4174 16.5489 14.4174 16.737C14.4174 16.926 13.9169 17.2847 13.1337 17.2882H13.125V18.5938H13.1337C13.9169 18.5964 14.4174 18.956 14.4174 19.1441C14.4174 19.3331 13.9134 19.6954 13.125 19.6954V21C14.5854 21 15.7299 20.1845 15.7299 19.1441C15.7299 18.6786 15.4919 18.2639 15.1078 17.941C15.4919 17.6181 15.729 17.2034 15.729 16.7379C15.729 15.6966 14.5854 14.882 13.125 14.882ZM19.9062 15.75C18.5675 15.75 17.5 16.8787 17.5 18.2C17.5 18.9691 17.9419 19.5344 18.2613 19.8625L21.4375 23.1263L24.6225 19.8625C24.9419 19.5352 25.375 19.0829 25.375 18.2C25.375 16.8787 24.3075 15.75 22.9688 15.75C22.33 15.75 21.805 15.9688 21.4375 16.1875C21.07 15.9688 20.545 15.75 19.9062 15.75ZM19.9062 17.5C20.1154 17.5 20.3289 17.5647 20.5424 17.6916L21.4375 18.2254L22.3326 17.6916C22.5233 17.5712 22.7432 17.505 22.9688 17.5C23.3188 17.5 23.625 17.8281 23.625 18.2C23.625 18.3645 23.618 18.3864 23.3704 18.6401L21.4393 20.6185L19.5142 18.641C19.4163 18.5404 19.25 18.3479 19.25 18.2009C19.25 17.8281 19.5562 17.5 19.9062 17.5Z" fill="black"/>
</svg>
